HIERARCHY
ROOT RootJoint
{
    OFFSET   0.000000   0.000000   0.000000
    CHANNELS 6 Xposition Yposition Zposition Xrotation Yrotation Zrotation
    JOINT pelvis_lowerback
    {
        OFFSET   0.000000   0.093605   0.000000
        CHANNELS 3 Xrotation Yrotation Zrotation
        JOINT lowerback_torso
        {
            OFFSET   0.000000   0.100000   0.000000
            CHANNELS 3 Xrotation Yrotation Zrotation
            JOINT torso_head
            {
                OFFSET   0.000000   0.282350   0.000000
                CHANNELS 3 Xrotation Yrotation Zrotation
                End Site
                {
                    OFFSET   0.000000   0.192650   0.000000
                }
            }
            JOINT rTorso_Clavicle
            {
                OFFSET  -0.001000   0.157500   0.000000
                CHANNELS 3 Xrotation Yrotation Zrotation
                JOINT rShoulder
                {
                    OFFSET  -0.117647   0.000000   0.000000
                    CHANNELS 3 Xrotation Yrotation Zrotation
                    JOINT rElbow
                    {
                        OFFSET  -0.245000   0.000000   0.000000
                        CHANNELS 3 Xrotation Yrotation Zrotation
                        JOINT rWrist
                        {
                            OFFSET  -0.240000   0.000000   0.000000
                            CHANNELS 3 Xrotation Yrotation Zrotation
                            End Site
                            {
                                OFFSET  -0.116353  -0.002500   0.000000
                            }
                        }
                    }
                }
            }
            JOINT lTorso_Clavicle
            {
                OFFSET   0.001000   0.157500   0.000000
                CHANNELS 3 Xrotation Yrotation Zrotation
                JOINT lShoulder
                {
                    OFFSET   0.117647   0.000000   0.000000
                    CHANNELS 3 Xrotation Yrotation Zrotation
                    JOINT lElbow
                    {
                        OFFSET   0.245000   0.000000   0.000000
                        CHANNELS 3 Xrotation Yrotation Zrotation
                        JOINT lWrist
                        {
                            OFFSET   0.240000   0.000000   0.000000
                            CHANNELS 3 Xrotation Yrotation Zrotation
                            End Site
                            {
                                OFFSET   0.116353  -0.002500   0.000000
                            }
                        }
                    }
                }
            }
        }
    }
    JOINT rHip
    {
        OFFSET  -0.100000  -0.051395   0.000000
        CHANNELS 3 Xrotation Yrotation Zrotation
        JOINT rKnee
        {
            OFFSET   0.000000  -0.410000   0.000000
            CHANNELS 3 Xrotation Yrotation Zrotation
            JOINT rAnkle
            {
                OFFSET   0.000000  -0.390000   0.000000
                CHANNELS 3 Xrotation Yrotation Zrotation
                JOINT rToeJoint
                {
                    OFFSET   0.000000  -0.050000   0.130000
                    CHANNELS 3 Xrotation Yrotation Zrotation
                    End Site
                    {
                        OFFSET  -0.010000   0.002000   0.060000
                    }
                }
            }
        }
    }
    JOINT lHip
    {
        OFFSET   0.100000  -0.051395   0.000000
        CHANNELS 3 Xrotation Yrotation Zrotation
        JOINT lKnee
        {
            OFFSET   0.000000  -0.410000   0.000000
            CHANNELS 3 Xrotation Yrotation Zrotation
            JOINT lAnkle
            {
                OFFSET   0.000000  -0.390000   0.000000
                CHANNELS 3 Xrotation Yrotation Zrotation
                JOINT lToeJoint
                {
                    OFFSET   0.000000  -0.050000   0.130000
                    CHANNELS 3 Xrotation Yrotation Zrotation
                    End Site
                    {
                        OFFSET   0.010000   0.002000   0.060000
                    }
                }
            }
        }
    }
}
MOTION
Frames: 11
Frame Time:   0.008333
 -2.448306   0.929981   5.409781  -0.522159 -13.636591   2.949114  11.835636   5.898069  -0.282260   4.937342  -0.037785   1.612467  -2.941749  -0.419497   1.896936   0.817023   0.752113   6.876015  -2.530029   8.467661  43.640831   0.011237  38.169798  -0.036406  -0.274272   2.879572  -4.188425   8.037412   4.348515  -6.482824  18.974449  -5.535551 -49.607383  -0.011204 -19.903064   0.014902   2.987334  -3.538602  -1.179269   8.308296  -3.683780  -2.440307  15.713585  -0.001034   0.009751  -0.497793  -4.549319   1.467929 -35.583725  -0.001408   0.017530 -30.418054   5.657406   6.731667  38.920120   0.006219   0.053121 -11.736580  14.025785   4.023488  -5.011700   0.003189   0.000716
 -2.449283   0.928313   5.423914  -0.612008 -14.264383   2.833185  11.796339   6.383640  -0.203845   5.115574   0.272774   1.575250  -3.012954  -0.612725   1.956286   0.645357   1.109411   6.696191  -3.038609   8.973423  43.457604   0.008600  39.620052  -0.034783  -0.283079   2.850993  -4.081944   8.319627   4.879994  -6.476049  19.761224  -4.716007 -49.652008  -0.009763 -19.220133   0.015328   2.963411  -3.479599  -1.327228   9.360160  -3.653056  -2.655548  15.475153  -0.001115   0.009064  -0.152942  -4.140892   1.883537 -37.088915  -0.001063   0.018137 -30.748841   5.799477   6.932318  36.049728   0.002338   0.052228 -11.815867  14.087598   3.971401  -5.080710   0.001973   0.000555
 -2.450316   0.926365   5.438172  -0.687533 -14.856733   2.683418  11.726793   6.854303  -0.112034   5.272849   0.587575   1.551553  -3.077932  -0.798324   2.016551   0.457574   1.448032   6.476967  -3.536953   9.461144  43.260400   0.005336  40.997119  -0.032768  -0.283719   2.940266  -4.022817   8.624866   5.419603  -6.432668  20.534799  -3.912961 -49.685246  -0.008442 -18.565344   0.015603   2.938719  -3.375188  -1.445463  10.386937  -3.639043  -2.840422  15.271197  -0.001146   0.008306   0.203268  -3.753893   2.272956 -38.658289  -0.001305   0.018805 -31.065095   5.922418   7.152275  33.244739  -0.001417   0.050452 -11.893961  14.142691   3.922258  -5.136351   0.001112   0.000424
 -2.451381   0.924137   5.452543  -0.753882 -15.403140   2.521464  11.642572   7.311973  -0.022125   5.408293   0.902470   1.531530  -3.140702  -0.972381   2.073794   0.266429   1.769462   6.240909  -4.014493   9.923005  43.057311   0.002278  42.289171  -0.030809  -0.279567   3.077374  -4.021568   8.933986   5.947295  -6.363965  21.280006  -3.140396 -49.708773  -0.007332 -17.942426   0.015689   2.915882  -3.214827  -1.531016  11.393535  -3.637874  -3.016405  15.104956  -0.001141   0.007461   0.552027  -3.393985   2.635705 -40.266354  -0.002026   0.019241 -31.388762   6.032495   7.362429  30.601475  -0.004995   0.047637 -11.968038  14.193642   3.876314  -5.188948   0.000455   0.000315
 -2.452474   0.921638   5.467020  -0.810542 -15.904804   2.355039  11.548411   7.755681   0.061442   5.524839   1.212903   1.510821  -3.201425  -1.134782   2.126876   0.077894   2.074203   6.000829  -4.468085  10.358884  42.856471  -0.000251  43.498788  -0.028996  -0.272662   3.233347  -4.059532   9.237530   6.455219  -6.281596  21.990047  -2.404563 -49.727907  -0.006481 -17.353587   0.015534   2.894461  -3.019016  -1.589751  12.379676  -3.647627  -3.189944  14.974999  -0.001102   0.006571   0.894777  -3.060825   2.972725 -41.910766  -0.003123   0.019414 -31.719900   6.133624   7.554220  28.129729  -0.008230   0.044079 -12.037735  14.240914   3.833289  -5.240902  -0.000056   0.000222
 -2.453594   0.918873   5.481589  -0.854454 -16.364883   2.187611  11.446369   8.183266   0.137080   5.624247   1.515302   1.487433  -3.259992  -1.286129   2.175693  -0.104649   2.362765   5.764323  -4.896716  10.769844  42.663206  -0.002175  44.630452  -0.027325  -0.264058   3.398085  -4.120289   9.530426   6.939708  -6.194176  22.662065  -1.708530 -49.747315  -0.005880 -16.799504   0.015125   2.874132  -2.805812  -1.631144  13.343586  -3.664507  -3.362871  14.877801  -0.001034   0.005680   1.232514  -2.750942   3.283191 -43.586953  -0.004494   0.019256 -32.056402   6.227077   7.725623  25.822274  -0.011002   0.040104 -12.103181  14.284799   3.792973  -5.292434  -0.000451   0.000141
 -2.454742   0.915839   5.496238  -0.882261 -16.786966   2.020393  11.337887   8.592916   0.204503   5.707876   1.807105   1.460487  -3.316384  -1.427157   2.220479  -0.279155   2.635589   5.536007  -5.300282  11.156986  42.480512  -0.003528  45.688785  -0.025778  -0.254367   3.567115  -4.192866   9.809619   7.398967  -6.107905  23.295067  -1.053557 -49.770144  -0.005492 -16.279868   0.014476   2.854708  -2.587690  -1.663605  14.283501  -3.685725  -3.534559  14.809805  -0.000942   0.004822   1.563618  -2.461147   3.568083 -45.276640  -0.006009   0.018735 -32.395744   6.313252   7.877716  23.668755  -0.013255   0.035967 -12.164598  14.325552   3.755194  -5.343277  -0.000750   0.000072
 -2.455972   0.913223   5.511533  -1.013943 -17.238583   1.783545  11.194130   8.979250   0.269493   5.883041   2.123269   1.493200  -3.380183  -1.635063   2.311741  -0.430258   2.915473   5.316403  -5.639551  11.518024  42.317189  -0.004222  46.760658  -0.024589  -0.232049   3.611370  -4.245817  10.049473   7.906783  -6.042145  23.874493  -0.225046 -49.773693  -0.004808 -15.844165   0.014402   2.852754  -2.505596  -1.772765  15.381842  -3.755367  -3.717203  14.683914  -0.000976   0.004466   1.869882  -2.090894   4.126617 -45.221332  -0.004853   0.014772 -32.506590   6.266832   8.026580  21.824175  -0.014054   0.034385 -12.333227  14.298394   3.850933  -5.469096  -0.001370   0.000225
 -2.457076   0.910839   5.527195  -1.124398 -17.725118   1.570884  11.010851   9.363470   0.319053   6.033835   2.445775   1.526832  -3.441603  -1.832770   2.398739  -0.564364   3.174066   5.108501  -5.952192  11.858455  42.174546  -0.004862  47.767342  -0.022770  -0.208778   3.671389  -4.265487  10.306163   8.421593  -5.957188  24.445786   0.578096 -49.777461  -0.004147 -15.425931   0.014194   2.846026  -2.410438  -1.868714  16.406979  -3.825628  -3.933509  14.573038  -0.000964   0.004136   2.353877  -1.782252   4.309512 -45.177080  -0.003797   0.011711 -32.539875   6.226972   8.129050  20.164985  -0.014764   0.033298 -12.490026  14.272972   3.941130  -5.596433  -0.001853   0.000416
 -2.458149   0.908540   5.543080  -1.199487 -18.203614   1.368322  10.799223   9.730383   0.364252   6.151372   2.759241   1.564686  -3.504870  -2.017962   2.479239  -0.687168   3.414014   4.910995  -6.243246  12.178646  42.046589  -0.005449  48.710611  -0.020701  -0.185939   3.746157  -4.274320  10.566409   8.923834  -5.851563  24.999207   1.346926 -49.777186  -0.003523 -15.027119   0.013799   2.839888  -2.283000  -1.947836  17.376441  -3.903469  -4.184319  14.532776  -0.000851   0.003515   2.959382  -1.461213   4.756572 -45.141680  -0.003025   0.009225 -32.541000   6.194811   8.204525  18.649945  -0.015377   0.031860 -12.635460  14.248877   4.025018  -5.716509  -0.002174   0.000557
 -2.459195   0.906201   5.559090  -1.235901 -18.669361   1.183129  10.573832  10.078839   0.401394   6.240178   3.058765   1.599965  -3.569286  -2.191062   2.552820  -0.803563   3.639274   4.718901  -6.517149  12.480950  41.928075  -0.005956  49.594777  -0.018637  -0.163235   3.834627  -4.283183  10.820938   9.404227  -5.730366  25.527879   2.076658 -49.773001  -0.002952 -14.649998   0.013203   2.834281  -2.136184  -2.009155  18.282734  -3.979836  -4.454545  14.515970  -0.000719   0.002895   3.652568  -1.154901   5.150600 -45.113357  -0.002398   0.007270 -32.525409   6.170057   8.252295  17.255777  -0.015832   0.030179 -12.770743  14.226353   4.103116  -5.829131  -0.002368   0.000652
